0
SECTION
2
HEADER
9
$INSUNITS
70
4
0
ENDSEC
0
SECTION
2
TABLES
0
TABLE
2
LAYER
70
5
0
LAYER
2
A-WALL
70
0
62
7
6
CONTINUOUS
0
LAYER
2
A-DOOR
70
0
62
3
6
CONTINUOUS
0
LAYER
2
A-GLAZ
70
0
62
4
6
CONTINUOUS
0
LAYER
2
A-ANNO
70
0
62
2
6
CONTINUOUS
0
LAYER
2
A-GRID
70
0
62
8
6
CONTINUOUS
0
ENDTAB
0
ENDSEC
0
SECTION
2
ENTITIES
0
LWPOLYLINE
8
A-WALL
90
2
70
0
10
0.000
20
0.000
10
8000.000
20
0.000
0
LWPOLYLINE
8
A-WALL
90
2
70
0
10
8000.000
20
0.000
10
8000.000
20
5000.000
0
LWPOLYLINE
8
A-WALL
90
2
70
0
10
8000.000
20
5000.000
10
0.000
20
5000.000
0
LWPOLYLINE
8
A-WALL
90
2
70
0
10
0.000
20
5000.000
10
0.000
20
0.000
0
LWPOLYLINE
8
A-WALL
90
2
70
0
10
4500.000
20
0.000
10
4500.000
20
5000.000
0
INSERT
8
A-DOOR
2
DOOR-900
10
4500.000
20
1200.000
50
90.000
0
INSERT
8
A-DOOR
2
DOOR-900
10
2000.000
20
0.000
50
0.000
0
INSERT
8
A-GLAZ
2
WIN-1200
10
6200.000
20
5000.000
50
0.000
0
INSERT
8
A-GLAZ
2
WIN-1200
10
0.000
20
2500.000
50
90.000
0
TEXT
8
A-ANNO
10
1500.000
20
2400.000
40
200.000
1
LIVING
0
TEXT
8
A-ANNO
10
6000.000
20
2400.000
40
200.000
1
BEDROOM
0
LINE
8
A-GRID
10
-500.000
20
2500.000
11
8500.000
21
2500.000
0
ENDSEC
0
EOF
