0
SECTION
2
HEADER
9
$INSUNITS
70
4
0
ENDSEC
0
SECTION
2
TABLES
0
TABLE
2
LAYER
70
3
0
LAYER
2
A-WALL
70
0
62
7
6
CONTINUOUS
0
LAYER
2
A-DOOR
70
0
62
3
6
CONTINUOUS
0
LAYER
2
A-ANNO
70
0
62
2
6
CONTINUOUS
0
ENDTAB
0
ENDSEC
0
SECTION
2
ENTITIES
0
LWPOLYLINE
8
A-WALL
90
2
70
0
10
0.000
20
0.000
10
6000.000
20
0.000
0
LWPOLYLINE
8
A-WALL
90
2
70
0
10
0.000
20
0.000
10
0.000
20
4000.000
0
LWPOLYLINE
8
A-WALL
90
2
70
0
10
0.000
20
4000.000
10
2000.000
20
4000.000
0
ARC
8
A-WALL
10
4000.000
20
4000.000
40
1800.000
50
0.000
51
180.000
0
LWPOLYLINE
8
A-WALL
90
2
70
0
10
6000.000
20
0.000
10
6000.000
20
4000.000
0
ARC
8
A-WALL
10
3000.000
20
-2000.000
40
3000.000
50
45.000
51
135.000
0
CIRCLE
8
A-WALL
10
3000.000
20
2000.000
40
200.000
0
INSERT
8
A-DOOR
2
DOOR-900
10
1000.000
20
0.000
50
0.000
0
TEXT
8
A-ANNO
10
3000.000
20
1000.000
40
200.000
1
BAY
0
ENDSEC
0
EOF
