0
SECTION
2
HEADER
0
ENDSEC
0
SECTION
2
TABLES
0
TABLE
2
LAYER
70
5
0
LAYER
2
0
70
0
62
7
6
CONTINUOUS
0
LAYER
2
WALLS-EXTERNAL
70
0
62
7
6
CONTINUOUS
0
LAYER
2
DEFPOINTS
70
0
62
8
6
CONTINUOUS
0
LAYER
2
MISC
70
0
62
1
6
CONTINUOUS
0
LAYER
2
A-ANNO
70
0
62
2
6
CONTINUOUS
0
ENDTAB
0
ENDSEC
0
SECTION
2
ENTITIES
0
LWPOLYLINE
8
WALLS-EXTERNAL
90
2
70
0
10
0.000
20
0.000
10
8.000
20
0.000
0
LWPOLYLINE
8
WALLS-EXTERNAL
90
2
70
0
10
8.003
20
0.000
10
8.003
20
5.000
0
LWPOLYLINE
8
WALLS-EXTERNAL
90
2
70
0
10
8.003
20
5.018
10
0.000
20
5.018
0
LWPOLYLINE
8
WALLS-EXTERNAL
90
2
70
0
10
0.000
20
0.000
10
8.000
20
0.000
0
LWPOLYLINE
8
0
90
2
70
0
10
4.500
20
0.000
10
4.500
20
5.000
0
LWPOLYLINE
8
MISC
90
2
70
0
10
0.000
20
2.500
10
4.500
20
2.500
0
LINE
8
MISC
10
2.000
20
0.000
11
2.000
21
0.900
0
ARC
8
MISC
10
2.000
20
0.000
40
0.900
50
0.000
51
90.000
0
LWPOLYLINE
8
DEFPOINTS
90
2
70
0
10
0.000
20
-1.000
10
8.000
20
-1.000
0
LWPOLYLINE
8
MISC
6
DASHED
90
2
70
0
10
0.000
20
4.000
10
8.000
20
4.000
0
TEXT
8
A-ANNO
10
1.000
20
1.000
40
200.000
1
SCALE 1:50 - DO NOT SCALE
0
ENDSEC
0
EOF
