0
SECTION
2
HEADER
9
$INSUNITS
70
4
0
ENDSEC
0
SECTION
2
TABLES
0
TABLE
2
LAYER
70
3
0
LAYER
2
A-WALL
70
0
62
7
6
CONTINUOUS
0
LAYER
2
A-DOOR
70
0
62
3
6
CONTINUOUS
0
LAYER
2
A-GLAZ
70
0
62
4
6
CONTINUOUS
0
ENDTAB
0
ENDSEC
0
SECTION
2
ENTITIES
0
LWPOLYLINE
8
A-WALL
90
2
70
0
10
0.000
20
-115.000
10
8000.000
20
-115.000
0
LWPOLYLINE
8
A-WALL
90
2
70
0
10
0.000
20
115.000
10
8000.000
20
115.000
0
LWPOLYLINE
8
A-WALL
90
2
70
0
10
7885.000
20
0.000
10
7885.000
20
5000.000
0
LWPOLYLINE
8
A-WALL
90
2
70
0
10
8115.000
20
0.000
10
8115.000
20
5000.000
0
LWPOLYLINE
8
A-WALL
90
2
70
0
10
0.000
20
4885.000
10
8000.000
20
4885.000
0
LWPOLYLINE
8
A-WALL
90
2
70
0
10
0.000
20
5115.000
10
8000.000
20
5115.000
0
LWPOLYLINE
8
A-WALL
90
2
70
0
10
-115.000
20
0.000
10
-115.000
20
5000.000
0
LWPOLYLINE
8
A-WALL
90
2
70
0
10
115.000
20
0.000
10
115.000
20
5000.000
0
LWPOLYLINE
8
A-WALL
90
2
70
0
10
4385.000
20
0.000
10
4385.000
20
5000.000
0
LWPOLYLINE
8
A-WALL
90
2
70
0
10
4615.000
20
0.000
10
4615.000
20
5000.000
0
INSERT
8
A-DOOR
2
DOOR-900
10
2000.000
20
0.000
50
0.000
0
INSERT
8
A-GLAZ
2
WIN-1200
10
6200.000
20
5000.000
50
0.000
0
ENDSEC
0
EOF
